<?xml version="1.0" encoding="UTF-8"?>
<svg xmlns="http://www.w3.org/2000/svg" id="_Слой_1" data-name="Слой 1" viewBox="0 0 167.77 165.78"> <defs> <style> .cls-1 { fill: #fff; } </style> </defs> <rect width="167.77" height="165.78"/> <g> <polygon class="cls-1" points="57.09 91.77 56.89 91.77 39.66 58.95 24.47 58.95 24.47 106.82 34.95 106.82 34.95 70.6 35.22 70.6 53.68 106.82 60.36 106.82 78.75 70.6 79.12 70.6 79.12 106.82 89.5 106.82 89.5 58.95 74.31 58.95 57.09 91.77"/> <polygon class="cls-1" points="95.91 81.44 99.08 81.44 99.08 106.82 109.56 106.82 109.56 90.06 141.41 90.06 141.41 81.44 106.39 81.44 106.39 68.46 141.41 68.46 141.41 58.95 95.91 58.95 95.91 81.44"/> </g> </svg>