<?xml version="1.0" encoding="UTF-8"?>
<svg xmlns="http://www.w3.org/2000/svg" xmlns:xlink="http://www.w3.org/1999/xlink" width="24px" height="24px" viewBox="0 0 24 24" version="1.1">
<g id="surface1">
<path style=" stroke:none;fill-rule:nonzero;fill:rgb(0%,0%,0%);fill-opacity:1;" d="M 12 0.960938 C 5.914062 0.960938 0.960938 5.914062 0.960938 12 C 0.960938 18.085938 5.914062 23.039062 12 23.039062 C 18.085938 23.039062 23.039062 18.085938 23.039062 12 C 23.039062 5.914062 18.085938 0.960938 12 0.960938 Z M 16.785156 14.175781 C 17.859375 15.128906 18.085938 15.46875 18.121094 15.527344 C 18.566406 16.234375 17.628906 16.320312 17.628906 16.320312 L 15.648438 16.320312 C 15.648438 16.320312 15.167969 16.324219 14.757812 16.050781 C 14.085938 15.613281 13.382812 14.761719 12.890625 14.910156 C 12.476562 15.035156 12.480469 15.59375 12.480469 16.070312 C 12.480469 16.242188 12.332031 16.320312 12 16.320312 C 11.667969 16.320312 11.527344 16.320312 11.382812 16.320312 C 10.296875 16.320312 9.121094 15.957031 7.949219 14.730469 C 6.292969 12.996094 4.835938 9.507812 4.835938 9.507812 C 4.835938 9.507812 4.75 9.332031 4.84375 9.226562 C 4.949219 9.105469 5.238281 9.121094 5.238281 9.121094 L 7.15625 9.121094 C 7.15625 9.121094 7.335938 9.152344 7.464844 9.246094 C 7.574219 9.320312 7.632812 9.464844 7.632812 9.464844 C 7.632812 9.464844 7.953125 10.527344 8.367188 11.207031 C 9.167969 12.527344 9.539062 12.5625 9.8125 12.421875 C 10.210938 12.214844 10.078125 10.804688 10.078125 10.804688 C 10.078125 10.804688 10.097656 10.203125 9.890625 9.933594 C 9.730469 9.722656 9.425781 9.613281 9.292969 9.597656 C 9.183594 9.582031 9.363281 9.394531 9.59375 9.285156 C 9.902344 9.148438 10.320312 9.113281 11.039062 9.121094 C 11.601562 9.125 11.761719 9.160156 11.980469 9.210938 C 12.644531 9.363281 12.480469 9.765625 12.480469 11.179688 C 12.480469 11.632812 12.417969 12.269531 12.757812 12.480469 C 12.90625 12.570312 13.410156 12.683594 14.308594 11.222656 C 14.738281 10.53125 15.078125 9.382812 15.078125 9.382812 C 15.078125 9.382812 15.144531 9.257812 15.253906 9.195312 C 15.367188 9.128906 15.363281 9.132812 15.515625 9.132812 C 15.667969 9.132812 17.199219 9.121094 17.535156 9.121094 C 17.871094 9.121094 18.1875 9.117188 18.238281 9.3125 C 18.316406 9.59375 17.992188 10.5625 17.167969 11.617188 C 15.8125 13.339844 15.664062 13.179688 16.785156 14.175781 Z M 16.785156 14.175781 "/>
</g>
</svg>
